<svg width="46" height="46" viewBox="0 0 46 46" fill="none" xmlns="http://www.w3.org/2000/svg">
<path fill-rule="evenodd" clip-rule="evenodd" d="M23.0007 6.7085C14.0172 6.7085 6.70898 14.0167 6.70898 23.0002C6.70898 31.9836 14.0172 39.2918 23.0007 39.2918C31.9841 39.2918 39.2923 31.9836 39.2923 23.0002C39.2923 14.0167 31.9841 6.7085 23.0007 6.7085ZM23.0007 42.1668C12.4322 42.1668 3.83398 33.5687 3.83398 23.0002C3.83398 12.4317 12.4322 3.8335 23.0007 3.8335C33.5692 3.8335 42.1673 12.4317 42.1673 23.0002C42.1673 33.5687 33.5692 42.1668 23.0007 42.1668Z" fill="#4C4C4C"/>
<path fill-rule="evenodd" clip-rule="evenodd" d="M22.9902 25.6323C22.1967 25.6323 21.5527 24.9883 21.5527 24.1948V15.7251C21.5527 14.9316 22.1967 14.2876 22.9902 14.2876C23.7837 14.2876 24.4277 14.9316 24.4277 15.7251V24.1948C24.4277 24.9883 23.7837 25.6323 22.9902 25.6323Z" fill="#4C4C4C"/>
<path fill-rule="evenodd" clip-rule="evenodd" d="M23.0083 32.1917C21.9484 32.1917 21.082 31.335 21.082 30.2751C21.082 29.2151 21.9311 28.3584 22.9891 28.3584H23.0083C24.0682 28.3584 24.9249 29.2151 24.9249 30.2751C24.9249 31.335 24.0682 32.1917 23.0083 32.1917Z" fill="#4C4C4C"/>
</svg>
